<?xml version="1.0" encoding="UTF-8" standalone="no"?>
<svg
   xmlns:dc="http://purl.org/dc/elements/1.1/"
   xmlns:cc="http://creativecommons.org/ns#"
   xmlns:rdf="http://www.w3.org/1999/02/22-rdf-syntax-ns#"
   xmlns:svg="http://www.w3.org/2000/svg"
   xmlns="http://www.w3.org/2000/svg"
   xmlns:sodipodi="http://sodipodi.sourceforge.net/DTD/sodipodi-0.dtd"
   xmlns:inkscape="http://www.inkscape.org/namespaces/inkscape"
   width="12"
   height="8.181818"
   viewBox="0 0 12 8.181818"
   version="1.1"
   id="svg6"
   sodipodi:docname="icon_ver_image.svg"
   inkscape:version="0.92.4 (5da689c313, 2019-01-14)">
  <metadata
     id="metadata12">
    <rdf:RDF>
      <cc:Work
         rdf:about="">
        <dc:format>image/svg+xml</dc:format>
        <dc:type
           rdf:resource="http://purl.org/dc/dcmitype/StillImage" />
        <dc:title></dc:title>
      </cc:Work>
    </rdf:RDF>
  </metadata>
  <defs
     id="defs10">
    <clipPath
       clipPathUnits="userSpaceOnUse"
       id="clipPath1288">
      <path
         d="m 309.945,169.152 h 30.435 v 48.176 h -30.435 z m 16.853,43.75 h 8.726 v -8.726 h -8.726 z m -12.001,0 h 8.729 v -8.726 h -8.729 z m 12.001,-12 h 8.726 v -8.726 h -8.726 z m -12.001,0 h 8.729 v -8.726 h -8.729 z m 17.146,-16.263 c 0,1.243 1.008,2.253 2.253,2.253 v 0 c 1.246,0 2.255,-1.01 2.255,-2.253 v 0 c 0,-1.246 -1.009,-2.254 -2.255,-2.254 v 0 c -1.245,0 -2.253,1.008 -2.253,2.254"
         id="path1286"
         inkscape:connector-curvature="0" />
    </clipPath>
    <linearGradient
       x1="0"
       y1="0"
       x2="1"
       y2="0"
       gradientUnits="userSpaceOnUse"
       gradientTransform="matrix(-2.1e-6,-48.175781,-48.175781,2.1e-6,325.16211,217.32813)"
       spreadMethod="pad"
       id="linearGradient1298">
      <stop
         style="stop-opacity:1;stop-color:#fbb03b"
         offset="0"
         id="stop1294" />
      <stop
         style="stop-opacity:1;stop-color:#f7931e"
         offset="1"
         id="stop1296" />
    </linearGradient>
  </defs>
  <sodipodi:namedview
     pagecolor="#ffffff"
     bordercolor="#666666"
     borderopacity="1"
     objecttolerance="10"
     gridtolerance="10"
     guidetolerance="10"
     inkscape:pageopacity="0"
     inkscape:pageshadow="2"
     inkscape:window-width="1920"
     inkscape:window-height="995"
     id="namedview8"
     showgrid="false"
     inkscape:zoom="9.8333333"
     inkscape:cx="11.20339"
     inkscape:cy="7.5"
     inkscape:window-x="0"
     inkscape:window-y="28"
     inkscape:window-maximized="1"
     inkscape:current-layer="svg6" />
  <path
     d="m -1,-11.318182 h 24 v 24 H -1 Z"
     id="path2"
     inkscape:connector-curvature="0"
     style="fill:none" />
  <path
     d="M 5.9999998,0 C 3.2727272,0 0.9436363,1.696363 0,4.090909 0.9436363,6.485455 3.2727272,8.181818 5.9999998,8.181818 8.7272728,8.181818 11.056363,6.485455 12,4.090909 11.056363,1.696363 8.7272728,0 5.9999998,0 Z m 0,6.818181 c -1.5054545,0 -2.7272726,-1.221817 -2.7272726,-2.727272 0,-1.505455 1.2218181,-2.727272 2.7272726,-2.727272 1.5054543,0 2.727273,1.221817 2.727273,2.727272 0,1.505455 -1.2218187,2.727272 -2.727273,2.727272 z m 0,-4.363636 c -0.9054544,0 -1.6363636,0.730909 -1.6363636,1.636364 0,0.905455 0.7309092,1.636364 1.6363636,1.636364 0.9054546,0 1.6363634,-0.730909 1.6363634,-1.636364 0,-0.905455 -0.7309088,-1.636364 -1.6363634,-1.636364 z"
     id="path4"
     style="fill:#f89b26;fill-opacity:1;stroke-width:0.54545456"
     inkscape:connector-curvature="0" />
</svg>
